#!OML:ASF X:\für Bonn\!DataBase\2005_08_12_Daniel\c3d\Daniel.ASF
:FULLY-SPECIFIED
:DEGREES
115
root 1.05555 10.4161 -0.771397 16.6874 -86.804 -38.2458
lowerback 53.5186 -3.91528 5.70246
upperback 3.62961 -3.11731 -2.11496
thorax -17.5254 -2.10919 -3.28226
lowerneck 6.88346 1.14164 -1.57265
upperneck -5.4661 1.25522 -1.56791
head -2.95059 0.712389 -0.291518
rclavicle 1.3418e-014 7.95139e-015
rhumerus 64.5336 -0.864497 -93.9484
rradius 9.77254
rwrist 57.1786
rhand -21.893 9.77165
rfingers 7.12502
rthumb 4.51209 -20.1603
lclavicle 1.3418e-014 7.95139e-015
lhumerus 64.9908 4.05484 88.813
lradius 10.8003
lwrist -65.4605
lhand -19.8872 2.57561
lfingers 7.12502
lthumb 6.44873 32.4574
rfemur -47.4356 -42.9736 -9.82441
rtibia 126.196
rfoot -8.07916 33.1423
rtoes -11.5182
lfemur -52.756 36.0498 6.76844
ltibia 123.876
lfoot -22.2767 -36.4238
ltoes 2.47014
116
root 1.05374 10.6021 -0.767595 17.6377 -86.8876 -38.7892
lowerback 52.9714 -3.84801 5.66463
upperback 3.64885 -3.06926 -2.10444
thorax -17.4303 -2.0808 -3.29242
lowerneck 6.78875 1.14501 -1.58064
upperneck -5.34877 1.26108 -1.59792
head -2.89246 0.714954 -0.298561
rclavicle 1.92821e-014 7.15625e-015
rhumerus 64.5466 -0.906974 -94.1062
rradius 9.67261
rwrist 57.4441
rhand -21.919 9.82935
rfingers 7.12502
rthumb 4.487 -20.1031
lclavicle 1.92821e-014 7.15625e-015
lhumerus 65.1267 4.27563 89.3537
lradius 10.7064
lwrist -65.9758
lhand -19.9479 2.60676
lfingers 7.12502
lthumb 6.39015 32.4904
rfemur -47.6526 -40.8509 -7.8577
rtibia 124.59
rfoot -7.74951 31.5954
rtoes -11.2182
lfemur -52.2201 34.5636 5.65072
ltibia 122.267
lfoot -22.3743 -35.1804
ltoes 2.36538
117
root 1.05099 10.7881 -0.762949 18.5851 -86.9587 -39.3195
lowerback 52.3955 -3.79898 5.66825
upperback 3.66842 -3.02442 -2.11794
thorax -17.33 -2.05568 -3.34829
lowerneck 6.71194 1.14164 -1.5774
upperneck -5.26075 1.26088 -1.59084
head -2.84797 0.713362 -0.295635
rclavicle -2.26615e-014 -1.27222e-014
rhumerus 64.5458 -0.959202 -94.2911
rradius 9.56916
rwrist 57.7446
rhand -22.0155 9.83914
rfingers 7.12502
rthumb 4.39382 -20.0953
lclavicle -2.26615e-014 -1.27222e-014
lhumerus 65.2411 4.418 89.7706
lradius 10.6439
lwrist -66.3787
lhand -19.9736 2.61704
lfingers 7.12502
lthumb 6.36526 32.5014
rfemur -47.6876 -38.8973 -6.15827
rtibia 122.966
rfoot -7.40583 30.195
rtoes -10.8647
lfemur -51.6425 33.1731 4.59939
ltibia 120.63
lfoot -22.5065 -33.9886
ltoes 2.25089
118
root 1.04676 10.9764 -0.75916 19.6653 -87.041 -40.0135
lowerback 51.8509 -3.74104 5.64041
upperback 3.68141 -2.98351 -2.12062
thorax -17.2377 -2.03083 -3.37427
lowerneck 6.58344 1.14735 -1.57278
upperneck -5.11193 1.27427 -1.59759
head -2.77309 0.718153 -0.297205
rclavicle -6.06293e-015 1.31198e-014
rhumerus 64.5296 -0.990958 -94.4756
rradius 9.47658
rwrist 58.1024
rhand -22.1594 9.81599
rfingers 7.12502
rthumb 4.25488 -20.1213
lclavicle -6.06293e-015 1.31198e-014
lhumerus 65.3588 4.66356 90.3935
lradius 10.5759
lwrist -67.0324
lhand -20.0106 2.63951
lfingers 7.12502
lthumb 6.32962 32.5249
rfemur -47.5296 -37.0249 -4.6463
rtibia 121.295
rfoot -7.15414 28.87
rtoes -10.5735
lfemur -50.9553 31.8562 3.67168
ltibia 118.958
lfoot -22.5954 -32.8771
ltoes 2.18363
119
root 1.04165 11.1651 -0.754934 21.0184 -87.1219 -40.99
lowerback 51.2989 -3.68852 5.63082
upperback 3.69425 -2.93895 -2.12362
thorax -17.1408 -2.00547 -3.41103
lowerneck 6.45334 1.1493 -1.58616
upperneck -4.9693 1.28217 -1.58528
head -2.70052 0.719961 -0.289312
rclavicle -5.46658e-015 2.78299e-015
rhumerus 64.487 -1.02739 -94.6562
rradius 9.41969
rwrist 58.4279
rhand -22.3488 9.806
rfingers 7.12502
rthumb 4.07195 -20.1348
lclavicle -5.46658e-015 2.78299e-015
lhumerus 65.5065 4.91377 91.0491
lradius 10.4499
lwrist -67.7483
lhand -20.0259 2.69214
lfingers 7.12502
lthumb 6.31485 32.578
rfemur -47.2389 -35.2947 -3.31003
rtibia 119.596
rfoot -6.94469 27.6465
rtoes -10.192
lfemur -50.22 30.6215 2.82882
ltibia 117.263
lfoot -22.7146 -31.7886
ltoes 2.05775
120
root 1.03639 11.3551 -0.750662 22.0478 -87.2013 -41.6598
lowerback 50.7908 -3.63649 5.60968
upperback 3.68223 -2.89668 -2.12425
thorax -17.0774 -1.98061 -3.43731
lowerneck 6.32218 1.15572 -1.60608
upperneck -4.80381 1.29519 -1.58312
head -2.62027 0.724517 -0.28363
rclavicle -1.10325e-014 -3.97569e-016
rhumerus 64.41 -1.05377 -94.8304
rradius 9.40676
rwrist 58.7491
rhand -22.5115 9.80888
rfingers 7.12502
rthumb 3.91483 -20.1349
lclavicle -1.10325e-014 -3.97569e-016
lhumerus 65.6311 5.10949 91.5745
lradius 10.3137
lwrist -68.2866
lhand -20.0503 2.75871
lfingers 7.12502
lthumb 6.29125 32.6453
rfemur -46.8112 -33.6983 -2.16076
rtibia 117.855
rfoot -6.68027 26.548
rtoes -9.75732
lfemur -49.4391 29.4158 2.00541
ltibia 115.527
lfoot -22.7849 -30.7361
ltoes 1.99799
121
root 1.03006 11.5444 -0.746862 23.9679 -87.28 -43.2207
lowerback 50.2788 -3.5887 5.61935
upperback 3.66639 -2.84351 -2.13056
thorax -17.0145 -1.95314 -3.49002
lowerneck 6.11701 1.15934 -1.61589
upperneck -4.5842 1.31066 -1.54356
head -2.50855 0.728109 -0.26693
rclavicle -2.48481e-015 -7.95139e-016
rhumerus 64.3233 -1.10482 -95.0163
rradius 9.42332
rwrist 59.003
rhand -22.5995 9.81089
rfingers 7.12502
rthumb 3.82989 -20.1344
lclavicle -2.48481e-015 -7.95139e-016
lhumerus 65.7472 5.28843 92.0982
lradius 10.2311
lwrist -68.8096
lhand -19.9679 2.81247
lfingers 7.12502
lthumb 6.37076 32.6967
rfemur -46.3209 -32.1994 -1.05642
rtibia 116.091
rfoot -6.57684 25.521
rtoes -9.50959
lfemur -48.606 28.342 1.31966
ltibia 113.782
lfoot -22.8319 -29.797
ltoes 1.95539
122
root 1.02314 11.734 -0.742684 26.0242 -87.3353 -44.9329
lowerback 49.7818 -3.55071 5.63994
upperback 3.63715 -2.79151 -2.12203
thorax -16.966 -1.92666 -3.52992
lowerneck 5.92937 1.16272 -1.60334
upperneck -4.37249 1.32296 -1.56826
head -2.40271 0.731803 -0.274655
rclavicle 2.55438e-014 -3.57812e-015
rhumerus 64.2086 -1.13514 -95.1898
rradius 9.46789
rwrist 59.258
rhand -22.6745 9.77362
rfingers 7.12502
rthumb 3.75741 -20.173
lclavicle 2.55438e-014 -3.57812e-015
lhumerus 65.8253 5.48997 92.6936
lradius 10.2348
lwrist -69.3617
lhand -19.8158 2.8331
lfingers 7.12502
lthumb 6.51765 32.7128
rfemur -45.7134 -30.808 -0.0567819
rtibia 114.274
rfoot -6.45024 24.5659
rtoes -9.15557
lfemur -47.7401 27.2865 0.680289
ltibia 112.005
lfoot -22.8574 -28.8537
ltoes 1.95783
123
root 1.01507 11.9222 -0.738898 28.5588 -87.3836 -47.1346
lowerback 49.2736 -3.51556 5.67289
upperback 3.61624 -2.73857 -2.1151
thorax -16.9024 -1.90051 -3.57824
lowerneck 5.69966 1.16944 -1.60729
upperneck -4.12826 1.34254 -1.55015
head -2.27924 0.737643 -0.265659
rclavicle 4.96962e-016 1.27222e-014
rhumerus 64.1289 -1.17577 -95.3705
rradius 9.50662
rwrist 59.4469
rhand -22.6267 9.75713
rfingers 7.12502
rthumb 3.8036 -20.1887
lclavicle 4.96962e-016 1.27222e-014
lhumerus 65.8691 5.61888 93.0747
lradius 10.2904
lwrist -69.6728
lhand -19.5703 2.86096
lfingers 7.12502
lthumb 6.75464 32.7332
rfemur -45.0374 -29.5266 0.86721
rtibia 112.449
rfoot -6.36815 23.7055
rtoes -8.89919
lfemur -46.8546 26.339 0.124368
ltibia 110.234
lfoot -22.9265 -27.9672
ltoes 1.90155
124
root 1.0066 12.1086 -0.735048 30.864 -87.4407 -49.1349
lowerback 48.7846 -3.4694 5.6853
upperback 3.58807 -2.68176 -2.10518
thorax -16.8473 -1.87178 -3.61495
lowerneck 5.52658 1.17479 -1.62696
upperneck -3.91002 1.35795 -1.51778
head -2.17564 0.741773 -0.24994
rclavicle 8.54774e-015 1.98785e-015
rhumerus 64.0409 -1.23596 -95.5326
rradius 9.53312
rwrist 59.6021
rhand -22.5414 9.75509
rfingers 7.12502
rthumb 3.88594 -20.1892
lclavicle 8.54774e-015 1.98785e-015
lhumerus 65.8714 5.74662 93.4907
lradius 10.3864
lwrist -70.0368
lhand -19.2864 2.9568
lfingers 7.12502
lthumb 7.02874 32.8201
rfemur -44.3001 -28.3137 1.68979
rtibia 110.603
rfoot -6.35228 22.9156
rtoes -8.63458
lfemur -45.8977 25.4221 -0.393449
ltibia 108.436
lfoot -22.8872 -27.1636
ltoes 2.03237
125
root 0.996422 12.2959 -0.73113 33.4547 -87.4912 -51.4889
lowerback 48.3418 -3.4336 5.71737
upperback 3.56164 -2.62923 -2.10711
thorax -16.7967 -1.84673 -3.67096
lowerneck 5.33634 1.17616 -1.60657
upperneck -3.68787 1.3697 -1.51885
head -2.06759 0.744288 -0.251372
rclavicle 4.17448e-015 -3.57812e-015
rhumerus 63.9268 -1.2898 -95.7164
rradius 9.54931
rwrist 59.766
rhand -22.4041 9.68609
rfingers 7.12502
rthumb 4.01855 -20.2558
lclavicle 4.17448e-015 -3.57812e-015
lhumerus 65.8424 5.92528 94.0679
lradius 10.509
lwrist -70.5872
lhand -18.9964 2.99398
lfingers 7.12502
lthumb 7.30859 32.8478
rfemur -43.4125 -27.1672 2.41352
rtibia 108.728
rfoot -6.36026 22.1822
rtoes -8.59533
lfemur -44.829 24.5662 -0.832355
ltibia 106.615
lfoot -22.9188 -26.3678
ltoes 2.03531
126
root 0.986048 12.4809 -0.727913 36.0158 -87.5265 -53.8082
lowerback 47.067 -3.33668 5.72149
upperback 4.53553 -2.58604 -2.01936
thorax -16.9371 -1.84361 -3.76719
lowerneck 5.18653 1.18384 -1.55316
upperneck -3.46479 1.39074 -1.5306
head -1.96676 0.751445 -0.262345
rclavicle 4.96962e-016 1.03368e-014
rhumerus 63.7483 -1.33011 -95.9073
rradius 9.63943
rwrist 59.8628
rhand -22.2431 9.66346
rfingers 7.12502
rthumb 4.17402 -20.2754
lclavicle 4.96962e-016 1.03368e-014
lhumerus 65.8032 6.07791 94.5034
lradius 10.5912
lwrist -71.0279
lhand -18.7085 3.11382
lfingers 7.12502
lthumb 7.58654 32.9578
rfemur -42.5096 -26.1303 3.08954
rtibia 106.854
rfoot -6.36747 21.5069
rtoes -8.37214
lfemur -43.7689 23.7562 -1.25037
ltibia 104.782
lfoot -22.9629 -25.561
ltoes 1.97207
127
root 0.975024 12.6643 -0.724227 38.6456 -87.5567 -56.1906
lowerback 46.6055 -3.30548 5.75625
upperback 4.47673 -2.53618 -2.01681
thorax -16.876 -1.81912 -3.82027
lowerneck 5.0592 1.18398 -1.45252
upperneck -3.25936 1.40204 -1.58333
head -1.87556 0.754436 -0.294063
rclavicle -5.86415e-015 1.15295e-014
rhumerus 63.5899 -1.38676 -96.0894
rradius 9.68505
rwrist 59.9627
rhand -22.0602 9.61472
rfingers 7.12502
rthumb 4.35063 -20.3206
lclavicle -5.86415e-015 1.15295e-014
lhumerus 65.7558 6.24914 95.0163
lradius 10.6651
lwrist -71.605
lhand -18.4431 3.16261
lfingers 7.12502
lthumb 7.84269 32.9971
rfemur -41.6002 -25.1856 3.72349
rtibia 104.975
rfoot -6.44461 20.8646
rtoes -8.43028
lfemur -42.7206 22.9956 -1.64559
ltibia 102.951
lfoot -22.9814 -24.8016
ltoes 1.95567
